<svg width="3171" height="930" xmlns="http://www.w3.org/2000/svg" xmlns:xlink="http://www.w3.org/1999/xlink" overflow="hidden"><defs><clipPath id="clip0"><rect x="495" y="834" width="3171" height="930"/></clipPath><clipPath id="clip1"><rect x="565" y="984" width="508" height="507"/></clipPath><clipPath id="clip2"><rect x="565" y="984" width="508" height="507"/></clipPath><clipPath id="clip3"><rect x="565" y="984" width="508" height="507"/></clipPath></defs><g clip-path="url(#clip0)" transform="translate(-495 -834)"><text fill="#262626" fill-opacity="1" font-family="Helvetica Neue,Helvetica Neue_MSFontService,sans-serif" font-style="normal" font-variant="normal" font-weight="700" font-stretch="normal" font-size="440" text-anchor="start" direction="ltr" writing-mode="lr-tb" unicode-bidi="normal" text-decoration="none" transform="matrix(1 0 0 1 1266.72 1403)">DripDropz</text><path d="M499 1237.5C499 1061.05 642.045 918 818.5 918 994.955 918 1138 1061.05 1138 1237.5 1138 1413.96 994.955 1557 818.5 1557 642.045 1557 499 1413.96 499 1237.5ZM814.852 1237.5C814.852 1239.52 816.485 1241.15 818.5 1241.15 820.515 1241.15 822.149 1239.52 822.149 1237.5 822.149 1235.49 820.515 1233.85 818.5 1233.85 816.485 1233.85 814.852 1235.49 814.852 1237.5Z" fill="#2EA9E2" fill-rule="evenodd" fill-opacity="1"/><g clip-path="url(#clip1)"><g clip-path="url(#clip2)"><g clip-path="url(#clip3)"><path d="M253.5 52.8125C253.5 52.8125 121.469 238.712 121.469 322.156 121.469 395.037 180.619 454.187 253.5 454.187 326.381 454.187 385.531 395.037 385.531 322.156 385.531 238.184 253.5 52.8125 253.5 52.8125Z" fill="#FFFFFF" fill-rule="nonzero" fill-opacity="1" transform="matrix(1 0 0 1 565 984)"/></g></g></g></g></svg>