<svg width="1664" height="1668" xmlns="http://www.w3.org/2000/svg" xmlns:xlink="http://www.w3.org/1999/xlink" overflow="hidden"><defs><clipPath id="clip0"><rect x="1365" y="403" width="1664" height="1668"/></clipPath><clipPath id="clip1"><rect x="1536" y="577" width="1321" height="1321"/></clipPath><clipPath id="clip2"><rect x="1536" y="577" width="1321" height="1321"/></clipPath><clipPath id="clip3"><rect x="1536" y="577" width="1321" height="1321"/></clipPath></defs><g clip-path="url(#clip0)" transform="translate(-1365 -403)"><path d="M1366 1237.5C1366 778.828 1738.05 407 2197 407 2655.95 407 3028 778.828 3028 1237.5 3028 1696.17 2655.95 2068 2197 2068 1738.05 2068 1366 1696.17 1366 1237.5ZM2187.01 1237.5C2187.01 1242.74 2191.49 1246.99 2197 1246.99 2202.52 1246.99 2206.99 1242.74 2206.99 1237.5 2206.99 1232.26 2202.52 1228.02 2197 1228.02 2191.49 1228.02 2187.01 1232.26 2187.01 1237.5Z" fill="#2EA9E2" fill-rule="evenodd" fill-opacity="1"/><g clip-path="url(#clip1)"><g clip-path="url(#clip2)"><g clip-path="url(#clip3)"><path d="M659.5 137.396C659.5 137.396 316.01 621.029 316.01 838.115 316.01 1027.72 469.894 1181.6 659.5 1181.6 849.106 1181.6 1002.99 1027.72 1002.99 838.115 1002.99 619.655 659.5 137.396 659.5 137.396Z" fill="#FFFFFF" fill-rule="nonzero" fill-opacity="1" transform="matrix(1.00076 0 0 1 1537 578)"/></g></g></g></g></svg>