<svg width="149" height="49" viewBox="0 0 149 49" fill="none" xmlns="http://www.w3.org/2000/svg">
<path d="M20.25 32.9C20.25 35.8 19.44 37.96 17.82 39.38C16.2 40.78 13.96 41.48 11.1 41.48C8.2 41.48 5.95 40.78 4.35 39.38C2.77 37.98 1.98 35.82 1.98 32.9V19.58H6.69V32.9C6.69 33.48 6.74 34.05 6.84 34.61C6.94 35.17 7.15 35.67 7.47 36.11C7.79 36.53 8.23 36.88 8.79 37.16C9.37 37.42 10.14 37.55 11.1 37.55C12.78 37.55 13.94 37.18 14.58 36.44C15.22 35.68 15.54 34.5 15.54 32.9V19.58H20.25V32.9ZM23.8563 25.49H27.9063V27.65H27.9963C28.5363 26.75 29.2363 26.1 30.0963 25.7C30.9563 25.28 31.8363 25.07 32.7363 25.07C33.8763 25.07 34.8063 25.23 35.5263 25.55C36.2663 25.85 36.8463 26.28 37.2663 26.84C37.6863 27.38 37.9763 28.05 38.1363 28.85C38.3163 29.63 38.4063 30.5 38.4063 31.46V41H34.1463V32.24C34.1463 30.96 33.9463 30.01 33.5463 29.39C33.1463 28.75 32.4363 28.43 31.4163 28.43C30.2563 28.43 29.4163 28.78 28.8963 29.48C28.3763 30.16 28.1163 31.29 28.1163 32.87V41H23.8563V25.49ZM42.0895 19.58H57.1495V23.54H46.7995V28.49H55.7695V32.15H46.7995V41H42.0895V19.58ZM59.4227 25.49H63.4727V28.37H63.5327C63.7327 27.89 64.0027 27.45 64.3427 27.05C64.6827 26.63 65.0727 26.28 65.5127 26C65.9527 25.7 66.4227 25.47 66.9227 25.31C67.4227 25.15 67.9427 25.07 68.4827 25.07C68.7627 25.07 69.0727 25.12 69.4127 25.22V29.18C69.2127 29.14 68.9727 29.11 68.6927 29.09C68.4127 29.05 68.1427 29.03 67.8827 29.03C67.1027 29.03 66.4427 29.16 65.9027 29.42C65.3627 29.68 64.9227 30.04 64.5827 30.5C64.2627 30.94 64.0327 31.46 63.8927 32.06C63.7527 32.66 63.6827 33.31 63.6827 34.01V41H59.4227V25.49ZM70.9029 30.26C70.9629 29.26 71.2129 28.43 71.6529 27.77C72.0929 27.11 72.6529 26.58 73.3329 26.18C74.0129 25.78 74.7729 25.5 75.6129 25.34C76.4729 25.16 77.3329 25.07 78.1929 25.07C78.9729 25.07 79.7629 25.13 80.5629 25.25C81.3629 25.35 82.0929 25.56 82.7529 25.88C83.4129 26.2 83.9529 26.65 84.3729 27.23C84.7929 27.79 85.0029 28.54 85.0029 29.48V37.55C85.0029 38.25 85.0429 38.92 85.1229 39.56C85.2029 40.2 85.3429 40.68 85.5429 41H81.2229C81.1429 40.76 81.0729 40.52 81.0129 40.28C80.9729 40.02 80.9429 39.76 80.9229 39.5C80.2429 40.2 79.4429 40.69 78.5229 40.97C77.6029 41.25 76.6629 41.39 75.7029 41.39C74.9629 41.39 74.2729 41.3 73.6329 41.12C72.9929 40.94 72.4329 40.66 71.9529 40.28C71.4729 39.9 71.0929 39.42 70.8129 38.84C70.5529 38.26 70.4229 37.57 70.4229 36.77C70.4229 35.89 70.5729 35.17 70.8729 34.61C71.1929 34.03 71.5929 33.57 72.0729 33.23C72.5729 32.89 73.1329 32.64 73.7529 32.48C74.3929 32.3 75.0329 32.16 75.6729 32.06C76.3129 31.96 76.9429 31.88 77.5629 31.82C78.1829 31.76 78.7329 31.67 79.2129 31.55C79.6929 31.43 80.0729 31.26 80.3529 31.04C80.6329 30.8 80.7629 30.46 80.7429 30.02C80.7429 29.56 80.6629 29.2 80.5029 28.94C80.3629 28.66 80.1629 28.45 79.9029 28.31C79.6629 28.15 79.3729 28.05 79.0329 28.01C78.7129 27.95 78.3629 27.92 77.9829 27.92C77.1429 27.92 76.4829 28.1 76.0029 28.46C75.5229 28.82 75.2429 29.42 75.1629 30.26H70.9029ZM80.7429 33.41C80.5629 33.57 80.3329 33.7 80.0529 33.8C79.7929 33.88 79.5029 33.95 79.1829 34.01C78.8829 34.07 78.5629 34.12 78.2229 34.16C77.8829 34.2 77.5429 34.25 77.2029 34.31C76.8829 34.37 76.5629 34.45 76.2429 34.55C75.9429 34.65 75.6729 34.79 75.4329 34.97C75.2129 35.13 75.0329 35.34 74.8929 35.6C74.7529 35.86 74.6829 36.19 74.6829 36.59C74.6829 36.97 74.7529 37.29 74.8929 37.55C75.0329 37.81 75.2229 38.02 75.4629 38.18C75.7029 38.32 75.9829 38.42 76.3029 38.48C76.6229 38.54 76.9529 38.57 77.2929 38.57C78.1329 38.57 78.7829 38.43 79.2429 38.15C79.7029 37.87 80.0429 37.54 80.2629 37.16C80.4829 36.76 80.6129 36.36 80.6529 35.96C80.7129 35.56 80.7429 35.24 80.7429 35V33.41ZM98.8695 30.95C98.5895 29.17 97.5395 28.28 95.7195 28.28C95.0395 28.28 94.4695 28.44 94.0095 28.76C93.5495 29.06 93.1695 29.46 92.8695 29.96C92.5895 30.44 92.3895 30.98 92.2695 31.58C92.1495 32.16 92.0895 32.74 92.0895 33.32C92.0895 33.88 92.1495 34.45 92.2695 35.03C92.3895 35.61 92.5795 36.14 92.8395 36.62C93.1195 37.08 93.4895 37.46 93.9495 37.76C94.4095 38.06 94.9695 38.21 95.6295 38.21C96.6495 38.21 97.4295 37.93 97.9695 37.37C98.5295 36.79 98.8795 36.02 99.0195 35.06H103.129C102.849 37.12 102.049 38.69 100.729 39.77C99.4095 40.85 97.7195 41.39 95.6595 41.39C94.4995 41.39 93.4295 41.2 92.4495 40.82C91.4895 40.42 90.6695 39.87 89.9895 39.17C89.3095 38.47 88.7795 37.64 88.3995 36.68C88.0195 35.7 87.8295 34.63 87.8295 33.47C87.8295 32.27 87.9995 31.16 88.3395 30.14C88.6995 29.1 89.2195 28.21 89.8995 27.47C90.5795 26.71 91.4095 26.12 92.3895 25.7C93.3695 25.28 94.4895 25.07 95.7495 25.07C96.6695 25.07 97.5495 25.19 98.3895 25.43C99.2495 25.67 100.009 26.04 100.669 26.54C101.349 27.02 101.899 27.63 102.319 28.37C102.739 29.09 102.979 29.95 103.039 30.95H98.8695ZM105.926 19.58H110.186V31.07L115.556 25.49H120.596L114.746 31.19L121.256 41H116.096L111.836 34.07L110.186 35.66V41H105.926V19.58ZM122.943 36.38H127.653V41H122.943V36.38ZM131.562 19.58H136.272V41H131.562V19.58ZM145.36 25.49H148.48V28.34H145.36V36.02C145.36 36.74 145.48 37.22 145.72 37.46C145.96 37.7 146.44 37.82 147.16 37.82C147.4 37.82 147.63 37.81 147.85 37.79C148.07 37.77 148.28 37.74 148.48 37.7V41C148.12 41.06 147.72 41.1 147.28 41.12C146.84 41.14 146.41 41.15 145.99 41.15C145.33 41.15 144.7 41.1 144.1 41C143.52 40.92 143 40.75 142.54 40.49C142.1 40.23 141.75 39.86 141.49 39.38C141.23 38.9 141.1 38.27 141.1 37.49V28.34H138.52V25.49H141.1V20.84H145.36V25.49Z" fill="#262626"/>
<path d="M20.2854 8.86388V4.65551H21.3226C21.6308 4.64679 21.9375 4.70055 22.2246 4.8136C22.4575 4.90521 22.6623 5.05677 22.8186 5.25309C22.9727 5.46136 23.08 5.70087 23.1329 5.95501C23.2052 6.25402 23.239 6.56111 23.2335 6.86878C23.244 7.19073 23.1972 7.51199 23.0952 7.81732C23.0178 8.0523 22.8913 8.26791 22.7243 8.44968C22.5741 8.59358 22.3937 8.70164 22.1963 8.76587C21.9944 8.83705 21.7817 8.87236 21.5677 8.8702L20.2854 8.86388ZM18.8271 3.43189V10.0938H21.684C22.1366 10.1051 22.5864 10.02 23.004 9.84404C23.3674 9.68113 23.6897 9.43798 23.9469 9.13264C24.2059 8.8213 24.3985 8.45968 24.5126 8.07027C24.6392 7.63383 24.7017 7.18112 24.698 6.7265C24.7047 6.23643 24.6238 5.74915 24.4592 5.28787C24.3279 4.90272 24.1132 4.55173 23.8306 4.26028C23.5663 3.98693 23.244 3.77724 22.8877 3.64689C22.5075 3.50607 22.1049 3.43642 21.6997 3.44137L18.8271 3.43189ZM25.5718 5.2689V10.0938H26.8886V7.9185C26.8873 7.7153 26.9094 7.51264 26.9546 7.31459C26.9921 7.13933 27.0649 6.97363 27.1683 6.82767C27.2732 6.68332 27.4127 6.56802 27.5738 6.49252C27.771 6.40317 27.9862 6.36097 28.2024 6.36921C28.2865 6.36936 28.3705 6.3757 28.4538 6.38818C28.5287 6.39294 28.6032 6.40244 28.6769 6.41664V5.18669C28.5833 5.15703 28.4859 5.14106 28.3878 5.13927C28.2248 5.13925 28.0627 5.16376 27.9069 5.21199C27.7521 5.26297 27.6051 5.33533 27.4701 5.42699C27.3334 5.51199 27.2113 5.61878 27.1086 5.74317C27.0044 5.86643 26.9196 6.00506 26.8572 6.15421H26.8289V5.2689H25.5718ZM30.5312 4.52271V3.43189H29.2081V4.52271H30.5312ZM29.2144 5.2689V10.0938H30.5312V5.2689H29.2144ZM33.9915 9.22749C33.8037 9.23333 33.6179 9.18741 33.4541 9.09469C33.3072 9.01499 33.1803 8.90251 33.0833 8.76587C32.9935 8.61252 32.9277 8.44614 32.8884 8.27262C32.8532 8.08498 32.8353 7.89446 32.835 7.7035C32.8351 7.50938 32.853 7.3157 32.8884 7.12488C32.922 6.95009 32.9847 6.78226 33.0738 6.62848C33.1636 6.48544 33.2852 6.3653 33.429 6.27752C33.5941 6.17912 33.784 6.13081 33.9758 6.1384C34.1616 6.13139 34.3453 6.17979 34.5038 6.27752C34.6518 6.3633 34.7761 6.48505 34.8653 6.63164C34.9616 6.78283 35.0278 6.95143 35.0601 7.12805C35.1041 7.31452 35.1263 7.50552 35.1261 7.69717C35.1263 7.88831 35.1074 8.07898 35.0695 8.2663C35.038 8.44412 34.9718 8.61391 34.8747 8.76587C34.7795 8.91473 34.6474 9.03613 34.4915 9.11816C34.3356 9.2002 34.1611 9.24005 33.9853 9.23381L33.9915 9.22749ZM31.5621 5.2689V11.7854H32.879V9.49624H32.8978C33.0565 9.72964 33.2732 9.91714 33.5264 10.0401C33.8021 10.1616 34.1006 10.222 34.4016 10.2171C34.7026 10.2121 34.999 10.1421 35.2707 10.0116C35.5287 9.88006 35.7542 9.69208 35.9307 9.46146C36.1122 9.22454 36.2476 8.95529 36.3298 8.66785C36.4171 8.35938 36.4605 8.04002 36.4587 7.7193C36.4595 7.38826 36.4162 7.0586 36.3298 6.73914C36.2445 6.44215 36.1037 6.16423 35.915 5.92023C35.734 5.68165 35.502 5.48713 35.2361 5.35111C34.934 5.19968 34.5993 5.12581 34.2618 5.1361C33.9806 5.13171 33.7021 5.19229 33.4478 5.31317C33.1859 5.43462 32.9668 5.63304 32.8192 5.88229H32.8004V5.2689H31.5621ZM38.8316 8.86388V4.65551H39.8687C40.1759 4.64643 40.4817 4.70021 40.7676 4.8136C41.0014 4.90345 41.2067 5.05532 41.3616 5.25309C41.5169 5.46067 41.6243 5.70045 41.6759 5.95501C41.7458 6.25121 41.7796 6.55487 41.7765 6.85929C41.7854 7.18115 41.7387 7.50213 41.6382 7.80784C41.5596 8.04226 41.4333 8.25763 41.2673 8.4402C41.1189 8.58711 40.9395 8.69844 40.7424 8.76587C40.5405 8.83705 40.3278 8.87236 40.1139 8.8702L38.8316 8.86388ZM37.3733 3.43189V10.0938H40.2302C40.6817 10.1054 41.1306 10.0203 41.547 9.84404C41.9103 9.68085 42.2325 9.43774 42.4899 9.13264C42.7489 8.8213 42.9415 8.45968 43.0556 8.07027C43.1822 7.63383 43.2447 7.18112 43.241 6.7265C43.2509 6.23364 43.1721 5.74305 43.0085 5.27839C42.8772 4.89323 42.6625 4.54224 42.3799 4.2508C42.1156 3.97744 41.7933 3.76775 41.437 3.63741C41.0568 3.49659 40.6542 3.42693 40.249 3.43189H37.3733ZM44.1148 5.2689V10.0938H45.4316V7.9185C45.4302 7.7153 45.4524 7.51264 45.4976 7.31459C45.5337 7.13887 45.6066 6.97289 45.7113 6.82767C45.8162 6.68332 45.9557 6.56802 46.1168 6.49252C46.3091 6.40522 46.5187 6.36306 46.7296 6.36921C46.8138 6.36947 46.8978 6.37581 46.9811 6.38818C47.0559 6.39315 47.1305 6.40265 47.2042 6.41664V5.18669C47.1106 5.15703 47.0132 5.14106 46.9151 5.13927C46.7521 5.13925 46.59 5.16376 46.4342 5.21199C46.2794 5.26297 46.1324 5.33533 45.9973 5.42699C45.7225 5.60805 45.5054 5.86491 45.3719 6.16686V5.2689H44.1148ZM48.7254 7.68769C48.7252 7.49655 48.7441 7.30588 48.7819 7.11856C48.8139 6.94332 48.8767 6.77522 48.9674 6.62216C49.0586 6.47977 49.1826 6.36157 49.3288 6.27752C49.5002 6.18616 49.6911 6.13839 49.8851 6.13839C50.079 6.13839 50.27 6.18616 50.4414 6.27752C50.5904 6.35774 50.7152 6.47677 50.8028 6.62216C50.9005 6.77265 50.9668 6.94153 50.9977 7.11856C51.0731 7.49418 51.0731 7.88119 50.9977 8.25681C50.9645 8.4322 50.8983 8.5996 50.8028 8.75006C50.7126 8.89121 50.5868 9.00577 50.4382 9.08205C50.2656 9.16936 50.0751 9.21483 49.8819 9.21483C49.6888 9.21483 49.4982 9.16936 49.3256 9.08205C49.1826 9.00608 49.0589 8.89787 48.9642 8.76587C48.8754 8.61305 48.8127 8.44632 48.7788 8.27262C48.7399 8.08013 48.721 7.88411 48.7222 7.68769H48.7254ZM47.4085 7.68769C47.4038 8.04334 47.4634 8.39689 47.5845 8.73108C47.6945 9.03047 47.8646 9.30385 48.0842 9.53419C48.3065 9.75131 48.5707 9.92025 48.8605 10.0306C49.5212 10.2667 50.2426 10.2667 50.9034 10.0306C51.2014 9.92248 51.4717 9.74889 51.6946 9.52245C51.9175 9.29601 52.0874 9.02243 52.192 8.7216C52.3145 8.3878 52.3741 8.03397 52.368 7.6782C52.3742 7.3214 52.3145 6.96653 52.192 6.63164C52.085 6.33079 51.9145 6.05681 51.6922 5.82854C51.4703 5.60109 51.2008 5.42613 50.9034 5.31633C50.2448 5.06771 49.519 5.06771 48.8605 5.31633C48.5667 5.42783 48.3006 5.60265 48.0811 5.82854C47.8549 6.05915 47.6812 6.33639 47.5719 6.64113C47.4541 6.97702 47.3977 7.33158 47.4053 7.68769H47.4085ZM55.6491 9.22749C55.4612 9.22891 55.2764 9.17862 55.1148 9.08205C54.9702 9.00585 54.8445 8.89777 54.7471 8.76587C54.656 8.61318 54.5902 8.44659 54.5523 8.27262C54.5144 8.08531 54.4955 7.89463 54.4957 7.7035C54.4952 7.5092 54.5142 7.31536 54.5523 7.12488C54.5842 6.94964 54.647 6.78154 54.7377 6.62848C54.8271 6.48788 54.9476 6.36994 55.0897 6.28384C55.2548 6.18544 55.4447 6.13713 55.6365 6.14472C55.8234 6.13708 56.0083 6.18551 56.1677 6.28384C56.3151 6.37047 56.4392 6.49204 56.5291 6.63796C56.6242 6.78983 56.6902 6.95816 56.724 7.13437C56.7654 7.32122 56.7865 7.51205 56.7868 7.7035C56.7865 7.89446 56.7686 8.08498 56.7334 8.27262C56.6996 8.44783 56.6336 8.61513 56.5386 8.76587C56.4424 8.91454 56.3097 9.03573 56.1533 9.1177C55.997 9.19968 55.8222 9.23967 55.646 9.23381L55.6491 9.22749ZM53.2291 5.2689V11.7854H54.546V9.49624H54.5648C54.7195 9.72367 54.9294 9.90759 55.1745 10.0306C55.4329 10.1494 55.7139 10.2098 55.998 10.2077C56.3007 10.2162 56.6012 10.1522 56.8744 10.0208C57.1477 9.88936 57.3859 9.69439 57.5694 9.45198C57.7521 9.2158 57.8876 8.94632 57.9686 8.65836C58.0584 8.35038 58.1029 8.03079 58.1006 7.70982C58.1019 7.37853 58.0574 7.04866 57.9686 6.72966C57.8901 6.43713 57.7567 6.16239 57.5757 5.92023C57.3953 5.68239 57.1645 5.48797 56.9 5.35111C56.5977 5.20005 56.2631 5.12621 55.9257 5.1361C55.6435 5.13168 55.3639 5.19224 55.1085 5.31317C54.8525 5.43723 54.6391 5.63541 54.4957 5.88229H54.4863V5.2689H53.2291ZM58.6003 9.08205V10.0938H63.0003V9.08205H60.3289L62.8243 6.25539V5.2689H58.7857V6.26803H61.0863L58.6003 9.08205Z" fill="#262626"/>
<path fill-rule="evenodd" clip-rule="evenodd" d="M2 6.77735C2 5.43678 2.39756 4.12632 3.14241 3.01173C3.88725 1.89713 4.94592 1.02846 6.1845 0.515595C7.42308 0.00272693 8.78594 -0.131302 10.1007 0.130459C11.4155 0.392221 12.6231 1.03801 13.5708 1.98616C14.5185 2.9343 15.1637 4.14221 15.4248 5.45709C15.686 6.77198 15.5513 8.13477 15.0379 9.37311C14.5244 10.6115 13.6553 11.6697 12.5403 12.414C11.4254 13.1584 10.1147 13.5553 8.77418 13.5547C6.97727 13.5539 5.25424 12.8394 3.98392 11.5685C2.71361 10.2976 2 8.57426 2 6.77735H2ZM8.69832 6.77735C8.69769 6.79323 8.70187 6.80893 8.71031 6.8224C8.71875 6.83587 8.73105 6.84648 8.74561 6.85285C8.76018 6.85922 8.77632 6.86105 8.79194 6.8581C8.80756 6.85515 8.82192 6.84757 8.83316 6.83633C8.8444 6.82509 8.85199 6.81072 8.85494 6.7951C8.85789 6.77948 8.85606 6.76334 8.84969 6.74878C8.84332 6.73422 8.83271 6.72191 8.81924 6.71347C8.80577 6.70504 8.79006 6.70086 8.77418 6.70148C8.75431 6.70226 8.73546 6.7105 8.7214 6.72457C8.70734 6.73863 8.6991 6.75747 8.69832 6.77735Z" fill="#29BCF4"/>
<path d="M8.78595 2.47583C8.78595 2.47583 6.0045 6.40913 6.0045 8.16709C5.99195 8.54268 6.05465 8.91697 6.18886 9.26768C6.32307 9.61839 6.52605 9.93835 6.78572 10.2085C7.04539 10.4787 7.35643 10.6935 7.70033 10.8402C8.04424 10.9869 8.41397 11.0626 8.78752 11.0626C9.16107 11.0626 9.5308 10.9869 9.87471 10.8402C10.2186 10.6935 10.5297 10.4787 10.7893 10.2085C11.049 9.93835 11.252 9.61839 11.3862 9.26768C11.5204 8.91697 11.5831 8.54268 11.5705 8.16709C11.5705 6.39964 8.78595 2.47583 8.78595 2.47583Z" fill="white"/>
</svg>
