<?xml version="1.0" encoding="UTF-8"?><svg id="Layer_1" xmlns="http://www.w3.org/2000/svg" xmlns:xlink="http://www.w3.org/1999/xlink" viewBox="0 0 556.31 143.15"><defs><style>.cls-1{fill:#fff;}.cls-2{fill:aqua;}.cls-3{clip-path:url(#clippath-2);}.cls-4{clip-path:url(#clippath-1);}.cls-5{clip-path:url(#clippath);}.cls-6{fill:#d06cff;}.cls-7{fill:none;}.cls-8{fill:#2ea9e2;fill-rule:evenodd;}.cls-9{clip-path:url(#clippath-3);}.cls-10{fill:#ff50a4;}.cls-11{fill:#262626;font-family:Arial-BoldMT, Arial;font-size:23px;font-weight:700;isolation:isolate;}.cls-12{fill:#ff0;}</style><clipPath id="clippath"><rect class="cls-7" width="165.73" height="48.61"/></clipPath><clipPath id="clippath-1"><rect class="cls-7" x="3.66" y="7.84" width="26.55" height="26.5"/></clipPath><clipPath id="clippath-2"><rect class="cls-7" x="3.66" y="7.84" width="26.55" height="26.5"/></clipPath><clipPath id="clippath-3"><rect class="cls-7" x="3.66" y="7.84" width="26.55" height="26.5"/></clipPath></defs><path class="cls-12" d="m10.75,129.05c2.48,3.05,5.87,5.55,10.09,7.43,4.25,1.9,10.23,2.83,18.29,2.83,6.6,0,12.06-.87,16.22-2.58,4.2-1.73,7.62-4.1,10.16-7.05,2.55-2.96,4.31-6.62,5.25-10.89.92-4.17,1.37-11.04,1.37-20.99v-1.43h-19.63v3.7c0,6.29-.23,10.83-.7,13.5-.41,2.39-1.62,4.35-3.68,6.01-2.05,1.65-5.25,2.49-9.49,2.49s-7.5-.9-9.83-2.68c-2.34-1.78-3.78-4.08-4.4-7.01-.38-1.95-.58-6.4-.58-13.24v-2.76H4.18v2.09c0,9.16.55,16.2,1.65,20.95.79,3.36,2.44,6.61,4.91,9.64Z"/><path class="cls-12" d="m140.67,137.93v-41.56h-17.26c.27,1.78.49,4.81.49,9.95v31.61h16.76Z"/><path class="cls-12" d="m85.9,137.93h18.8v-28.24c0-6.36.37-10.74,1.11-13,.04-.11.08-.22.12-.33h-20.03v41.56Z"/><path class="cls-10" d="m242.57,118.15c0-9.8.42-16.28,1.24-19.26.26-.95.55-1.79.87-2.53h-20.92v41.56h18.8v-19.77Z"/><polygon class="cls-10" points="155.44 137.93 175.08 137.93 175.08 103.46 208.93 103.46 208.93 96.36 155.44 96.36 155.44 137.93"/><polygon class="cls-10" points="278.29 96.49 278.29 96.36 277.56 96.36 278.29 96.49"/><path class="cls-10" d="m278.29,102.39c-1.48.49-2.78,1-3.89,1.54-3.13,1.52-5.6,3.73-7.35,6.59-1.74,2.85-2.62,6.12-2.62,9.73,0,5.46,1.93,10.05,5.74,13.63,2.23,2.1,4.94,3.58,8.11,4.45v-35.94Z"/><path class="cls-10" d="m140.67,137.93h2.04v-38.14c0-1.22-.02-2.36-.06-3.42h-1.98v41.56Z"/><polygon class="cls-2" points="282.85 97.32 283.19 96.36 278.29 96.36 278.29 96.49 282.85 97.32"/><polygon class="cls-2" points="394.01 137.93 412.81 137.93 412.81 118.14 415.9 114.91 415.9 96.36 394.01 96.36 394.01 137.93"/><path class="cls-2" d="m385.55,96.36h-18.44c.14.5.27,1.03.36,1.59l.27,1.62,17.8-3.21Z"/><path class="cls-2" d="m295.91,137.19c2.46-1.05,4.83-2.52,7.06-4.38.53,1.77.97,3.11,1.35,4.09l.41,1.03h19.09l-1.14-2.34c-1.3-2.67-2.19-5.19-2.66-7.49-.47-2.33-.71-6.07-.71-11.09l.17-18.16c0-.86-.01-1.69-.03-2.48h-18.49s0,.03,0,.05v.44c-2.84,1.03-7.46,2.14-13.78,3.33-3.44.66-6.41,1.4-8.88,2.22v35.94c2.22.61,4.65.92,7.31.92,3.63,0,7.11-.7,10.32-2.07Zm-12.68-18.54c0-1.69.75-3.01,2.32-4.12.79-.53,2.8-1.38,7.9-2.47,3.05-.65,5.56-1.25,7.49-1.78v.91c0,4.42-.29,6.3-.54,7.12-.49,1.7-1.51,3.1-3.1,4.28-2.28,1.65-4.59,2.46-7.07,2.46-2.09,0-3.74-.63-5.06-1.92-1.31-1.28-1.94-2.74-1.94-4.48Z"/><path class="cls-2" d="m329.31,96.36c-.79,3.23-1.19,6.77-1.19,10.61,0,9.97,2.73,17.93,8.11,23.63,5.4,5.74,12.72,8.64,21.74,8.64,7.9,0,14.33-1.92,19.1-5.72,4.78-3.8,8.04-9.45,9.7-16.79l.38-1.68-18.54-3.16-.3,1.57c-.7,3.71-1.87,6.32-3.47,7.75-1.59,1.42-3.6,2.1-6.16,2.1-3.46,0-6.14-1.22-8.17-3.72-2.09-2.56-3.15-7.19-3.15-13.74,0-3.95.47-7.13,1.41-9.51h-19.46Z"/><path class="cls-6" d="m521.25,96.36v19.19c0,5.65.17,9.32.52,11.21.44,2.78,1.27,5.05,2.46,6.74,1.23,1.74,3.13,3.16,5.65,4.22,2.44,1.02,5.2,1.54,8.21,1.54,4.77,0,9.12-.83,12.92-2.46l1.11-.47-1.69-15.32-1.95.71c-3.16,1.15-4.84,1.4-5.69,1.4-.69,0-1.24-.15-1.68-.47-.41-.29-.65-.62-.76-1.04-.06-.23-.25-1.49-.25-7.98v-17.25h-18.86Z"/><polygon class="cls-6" points="432.25 137.93 452.78 137.93 430.45 99.24 433.15 96.36 415.77 96.36 415.77 115.04 418.08 112.62 432.25 137.93"/><rect class="cls-6" x="457.57" y="119.12" width="18.8" height="18.8"/><rect class="cls-6" x="488.67" y="96.36" width="19.63" height="41.56"/><polygon class="cls-10" points="540.11 53.97 521.25 64.93 521.25 75.92 514.12 75.92 514.12 91.56 521.25 91.56 521.25 96.36 540.11 96.36 540.11 91.56 550.73 91.56 550.73 75.92 540.11 75.92 540.11 53.97"/><rect class="cls-10" x="488.67" y="53.56" width="19.63" height="42.8"/><polygon class="cls-10" points="428.65 75.92 415.77 90.55 415.77 96.36 433.15 96.36 452.28 75.92 428.65 75.92"/><path class="cls-12" d="m385.97,94.46c-1.94-6.63-5.2-11.66-9.7-14.94-4.49-3.27-10.56-4.93-18.03-4.93-9.16,0-16.56,2.9-21.98,8.61-3.34,3.52-5.66,7.93-6.94,13.16h19.46c.45-1.13,1-2.08,1.65-2.85,2-2.32,4.63-3.45,8.03-3.45,2.54,0,4.52.63,6.06,1.94,1.2,1.01,2.06,2.48,2.6,4.36h18.44l.92-.17-.51-1.74Z"/><polygon class="cls-12" points="415.9 90.4 412.81 93.92 412.81 53.56 394.01 53.56 394.01 96.36 415.9 96.36 415.9 90.4"/><path class="cls-12" d="m309.32,77.21c-3.65-1.77-8.95-2.62-16.2-2.62-6.01,0-10.98.85-14.83,2.52v19.25h4.9l.12-.35c.84-2.39,1.9-4.05,3.16-4.93,1.26-.89,3.13-1.34,5.54-1.34,4.58,0,6.49.82,7.29,1.51,1.09.94,1.64,2.66,1.65,5.11h18.49c-.16-5.75-.9-9.76-2.24-12.22-1.54-2.82-4.2-5.15-7.88-6.94Z"/><path class="cls-6" d="m141.81,88.95c-.28-1.19-.66-2.32-1.14-3.4v10.81h1.98c-.11-3.05-.39-5.49-.84-7.41Z"/><path class="cls-6" d="m278.29,77.11c-1.24.54-2.36,1.16-3.37,1.87-4.17,2.94-7.14,7.48-8.82,13.51l-.48,1.72,11.94,2.15h.72v-19.25Z"/><polygon class="cls-6" points="208.93 86.48 175.08 86.48 175.08 70.54 214.3 70.54 214.3 53.56 155.44 53.56 155.44 96.36 208.93 96.36 208.93 86.48"/><path class="cls-6" d="m246.82,93.23c1.23-.97,2.71-1.45,4.52-1.45,1.92,0,4.08.77,6.42,2.28l1.73,1.12,5.95-16.76-1.15-.68c-3.52-2.1-7.25-3.16-11.07-3.16-2.81,0-5.37.72-7.59,2.14-1.33.84-2.71,2.16-4.17,4v-4.81h-17.7v20.45h20.92c.61-1.43,1.33-2.49,2.14-3.13Z"/><path class="cls-2" d="m140.67,85.56c-.59-1.33-1.32-2.59-2.19-3.74-1.62-2.13-4.01-3.89-7.09-5.24-3.03-1.32-6.42-1.99-10.05-1.99-6.86,0-12.81,2.45-17.74,7.29v-5.96h-17.7v20.45h20.03c.7-1.95,1.9-3.49,3.65-4.7,1.88-1.3,3.95-1.93,6.32-1.93,1.78,0,3.24.41,4.47,1.26,1.22.84,2.08,2,2.63,3.55.13.38.28.95.41,1.81h17.26v-10.81Z"/><rect class="cls-2" x="4.18" y="53.56" width="19.63" height="42.8"/><rect class="cls-2" x="52.48" y="53.56" width="19.63" height="42.8"/><path d="m6.56,132.89c2.48,3.05,5.87,5.55,10.09,7.43,4.25,1.9,10.23,2.83,18.29,2.83,6.6,0,12.06-.87,16.22-2.58,4.2-1.73,7.62-4.1,10.16-7.05,2.55-2.96,4.31-6.62,5.25-10.89.92-4.17,1.37-11.04,1.37-20.99v-1.43h-19.63v3.7c0,6.29-.23,10.83-.7,13.5-.41,2.39-1.62,4.35-3.68,6.01-2.05,1.65-5.25,2.49-9.49,2.49s-7.5-.9-9.83-2.68c-2.34-1.78-3.78-4.08-4.4-7.01-.38-1.95-.58-6.4-.58-13.24v-2.76H0v2.09c0,9.16.55,16.2,1.65,20.95.79,3.36,2.44,6.61,4.91,9.64Z"/><path d="m136.49,141.77v-41.56h-17.26c.27,1.78.49,4.81.49,9.95v31.61h16.76Z"/><path d="m81.72,141.77h18.8v-28.24c0-6.36.37-10.74,1.11-13,.04-.11.08-.22.12-.33h-20.03v41.56Z"/><path d="m246.76,117.81c0-9.8.42-16.28,1.24-19.26.26-.95.55-1.79.87-2.53h-20.92v41.56h18.8v-19.77Z"/><polygon points="159.63 137.58 179.26 137.58 179.26 103.11 213.12 103.11 213.12 96.02 159.63 96.02 159.63 137.58"/><polygon points="282.47 96.15 282.47 96.02 281.75 96.02 282.47 96.15"/><path d="m282.47,102.05c-1.48.49-2.78,1-3.89,1.54-3.13,1.52-5.6,3.73-7.35,6.59-1.74,2.85-2.62,6.12-2.62,9.73,0,5.46,1.93,10.05,5.74,13.63,2.23,2.1,4.94,3.58,8.11,4.45v-35.94Z"/><path d="m144.86,137.58h2.04v-38.14c0-1.22-.02-2.36-.06-3.42h-1.98v41.56Z"/><polygon points="282.85 101.16 283.19 100.2 278.29 100.2 278.29 100.33 282.85 101.16"/><polygon points="394.01 141.77 412.81 141.77 412.81 121.98 415.9 118.75 415.9 100.2 394.01 100.2 394.01 141.77"/><path d="m385.55,100.2h-18.44c.14.5.27,1.03.36,1.59l.27,1.62,17.8-3.21Z"/><path d="m295.91,141.03c2.46-1.05,4.83-2.52,7.06-4.38.53,1.77.97,3.11,1.35,4.09l.41,1.03h19.09l-1.14-2.34c-1.3-2.67-2.19-5.19-2.66-7.49-.47-2.33-.71-6.07-.71-11.09l.17-18.16c0-.86-.01-1.69-.03-2.48h-18.49s0,.03,0,.05v.44c-2.84,1.03-7.46,2.14-13.78,3.33-3.44.66-6.41,1.4-8.88,2.22v35.94c2.22.61,4.65.92,7.31.92,3.63,0,7.11-.7,10.32-2.07Zm-12.68-18.54c0-1.69.75-3.01,2.32-4.12.79-.53,2.8-1.38,7.9-2.47,3.05-.65,5.56-1.25,7.49-1.78v.91c0,4.42-.29,6.3-.54,7.12-.49,1.7-1.51,3.1-3.1,4.28-2.28,1.65-4.59,2.46-7.07,2.46-2.09,0-3.74-.63-5.06-1.92-1.31-1.28-1.94-2.74-1.94-4.48Z"/><path d="m329.31,100.2c-.79,3.23-1.19,6.77-1.19,10.61,0,9.97,2.73,17.93,8.11,23.63,5.4,5.74,12.72,8.64,21.74,8.64,7.9,0,14.33-1.92,19.1-5.72,4.78-3.8,8.04-9.45,9.7-16.79l.38-1.68-18.54-3.16-.3,1.57c-.7,3.71-1.87,6.32-3.47,7.75-1.59,1.42-3.6,2.1-6.16,2.1-3.46,0-6.14-1.22-8.17-3.72-2.09-2.56-3.15-7.19-3.15-13.74,0-3.95.47-7.13,1.41-9.51h-19.46Z"/><path d="m525.44,96.02v19.19c0,5.65.17,9.32.52,11.21.44,2.78,1.27,5.05,2.46,6.74,1.23,1.74,3.13,3.16,5.65,4.22,2.44,1.02,5.2,1.54,8.21,1.54,4.77,0,9.12-.83,12.92-2.46l1.11-.47-1.69-15.32-1.95.71c-3.16,1.15-4.84,1.4-5.69,1.4-.69,0-1.24-.15-1.68-.47-.41-.29-.65-.62-.76-1.04-.06-.23-.25-1.49-.25-7.98v-17.25h-18.86Z"/><polygon points="436.43 137.58 456.97 137.58 434.64 98.9 437.33 96.02 419.95 96.02 419.95 114.7 422.27 112.28 436.43 137.58"/><rect x="461.76" y="118.78" width="18.8" height="18.8"/><rect x="492.85" y="96.02" width="19.63" height="41.56"/><polygon points="535.93 53.62 517.07 64.59 517.07 75.57 509.93 75.57 509.93 91.22 517.07 91.22 517.07 96.02 535.93 96.02 535.93 91.22 546.55 91.22 546.55 75.57 535.93 75.57 535.93 53.62"/><rect x="484.48" y="53.22" width="19.63" height="42.8"/><polygon points="424.46 75.57 411.58 90.21 411.58 96.02 428.96 96.02 448.09 75.57 424.46 75.57"/><path d="m381.78,89.93c-1.94-6.63-5.2-11.66-9.7-14.94-4.49-3.27-10.56-4.93-18.03-4.93-9.16,0-16.56,2.9-21.98,8.61-3.34,3.52-5.66,7.93-6.94,13.16h19.46c.45-1.13,1-2.08,1.65-2.85,2-2.32,4.63-3.45,8.03-3.45,2.54,0,4.52.63,6.06,1.94,1.2,1.01,2.06,2.48,2.6,4.36h18.44l.92-.17-.51-1.74Z"/><polygon points="411.72 85.87 408.62 89.39 408.62 49.03 389.82 49.03 389.82 91.83 411.72 91.83 411.72 85.87"/><path d="m305.13,72.68c-3.65-1.77-8.95-2.62-16.2-2.62-6.01,0-10.98.85-14.83,2.52v19.25h4.9l.12-.35c.84-2.39,1.9-4.05,3.16-4.93,1.26-.89,3.13-1.34,5.54-1.34,4.58,0,6.49.82,7.29,1.51,1.09.94,1.64,2.66,1.65,5.11h18.49c-.16-5.75-.9-9.76-2.24-12.22-1.54-2.82-4.2-5.15-7.88-6.94Z"/><path d="m137.62,88.61c-.28-1.19-.66-2.32-1.14-3.4v10.81h1.98c-.11-3.05-.39-5.49-.84-7.41Z"/><path d="m274.1,76.77c-1.24.54-2.36,1.16-3.37,1.87-4.17,2.94-7.14,7.48-8.82,13.51l-.48,1.72,11.94,2.15h.72v-19.25Z"/><polygon points="204.75 86.14 170.89 86.14 170.89 70.19 210.12 70.19 210.12 53.22 151.26 53.22 151.26 96.02 204.75 96.02 204.75 86.14"/><path d="m242.64,92.89c1.23-.97,2.71-1.45,4.52-1.45,1.92,0,4.08.77,6.42,2.28l1.73,1.12,5.95-16.76-1.15-.68c-3.52-2.1-7.25-3.16-11.07-3.16-2.81,0-5.37.72-7.59,2.14-1.33.84-2.71,2.16-4.17,4v-4.81h-17.7v20.45h20.92c.61-1.43,1.33-2.49,2.14-3.13Z"/><path d="m140.67,81.03c-.59-1.33-1.32-2.59-2.19-3.74-1.62-2.13-4.01-3.89-7.09-5.24-3.03-1.32-6.42-1.99-10.05-1.99-6.86,0-12.81,2.45-17.74,7.29v-5.96h-17.7v20.45h20.03c.7-1.95,1.9-3.49,3.65-4.7,1.88-1.3,3.95-1.93,6.32-1.93,1.78,0,3.24.41,4.47,1.26,1.22.84,2.08,2,2.63,3.55.13.38.28.95.41,1.81h17.26v-10.81Z"/><rect x="4.18" y="49.03" width="19.63" height="42.8"/><rect x="52.48" y="49.03" width="19.63" height="42.8"/><g class="cls-5"><text class="cls-11" transform="translate(40.33 29.74)"><tspan x="0" y="0">DripDropz</tspan></text><path class="cls-8" d="m.21,21.09C.21,11.87,7.69,4.39,16.91,4.39s16.7,7.48,16.7,16.7-7.48,16.7-16.7,16.7S.21,30.31.21,21.09Zm16.51,0c0,.11.09.19.19.19s.19-.09.19-.19-.09-.19-.19-.19-.19.09-.19.19Z"/><g class="cls-4"><g class="cls-3"><g class="cls-9"><path class="cls-1" d="m16.91,10.6s-6.9,9.72-6.9,14.08c0,3.81,3.09,6.9,6.9,6.9s6.9-3.09,6.9-6.9c0-4.39-6.9-14.08-6.9-14.08Z"/></g></g></g></g></svg>