<?xml version="1.0" encoding="UTF-8"?><svg id="Layer_1" xmlns="http://www.w3.org/2000/svg" viewBox="0 0 1894 320.42"><defs><style>.cls-1{fill:#fff;}.cls-2{fill:aqua;}.cls-3{fill:#d06cff;}.cls-4{fill:#ff50a4;}.cls-5{fill:#ff0;}</style></defs><path class="cls-5" d="m36.58,272.43c8.43,10.37,19.98,18.88,34.34,25.3,14.48,6.47,34.84,9.62,62.25,9.62,22.47,0,41.05-2.96,55.23-8.8,14.31-5.89,25.94-13.98,34.58-24.02,8.67-10.08,14.68-22.55,17.88-37.08,3.13-14.21,4.65-37.58,4.65-71.45v-4.87h-66.84v12.59c0,21.42-.8,36.88-2.37,45.95-1.41,8.12-5.5,14.81-12.52,20.46-6.99,5.62-17.86,8.48-32.31,8.48s-25.52-3.07-33.47-9.13c-7.96-6.07-12.86-13.9-14.97-23.88-1.31-6.64-1.97-21.8-1.97-45.08v-9.39H14.25v7.13c0,31.17,1.89,55.17,5.61,71.34,2.69,11.45,8.32,22.5,16.73,32.83Z"/><path class="cls-5" d="m478.92,302.64v-141.51h-58.75c.92,6.07,1.68,16.37,1.68,33.88v107.63h57.07Z"/><path class="cls-5" d="m292.45,302.64h64.01v-96.14c0-21.67,1.27-36.55,3.78-44.24.13-.38.28-.75.41-1.12h-68.2v141.51Z"/><path class="cls-4" d="m825.85,235.32c0-33.37,1.42-55.43,4.23-65.58.89-3.23,1.89-6.08,2.97-8.61h-71.21v141.51h64.01v-67.32Z"/><polygon class="cls-4" points="529.22 302.64 596.06 302.64 596.06 185.29 711.33 185.29 711.33 161.13 529.22 161.13 529.22 302.64"/><polygon class="cls-4" points="947.44 161.58 947.44 161.13 944.97 161.13 947.44 161.58"/><path class="cls-4" d="m947.44,181.67c-5.03,1.66-9.45,3.41-13.23,5.24-10.66,5.16-19.08,12.71-25.01,22.44-5.91,9.69-8.91,20.83-8.91,33.12,0,18.59,6.57,34.2,19.54,46.41,7.58,7.14,16.82,12.18,27.62,15.14v-122.36Z"/><path class="cls-4" d="m478.92,302.64h6.94v-129.86c0-4.15-.07-8.02-.2-11.65h-6.74v141.51Z"/><polygon class="cls-2" points="962.98 164.38 964.12 161.13 947.44 161.13 947.44 161.58 962.98 164.38"/><polygon class="cls-2" points="1341.42 302.64 1405.43 302.64 1405.43 235.28 1415.96 224.27 1415.96 161.13 1341.42 161.13 1341.42 302.64"/><path class="cls-2" d="m1312.63,161.13h-62.78c.49,1.71.91,3.5,1.24,5.41l.93,5.53,60.61-10.94Z"/><path class="cls-2" d="m1007.45,300.12c8.39-3.58,16.44-8.58,24.04-14.91,1.79,6.03,3.3,10.6,4.6,13.91l1.38,3.51h65l-3.88-7.97c-4.42-9.08-7.47-17.66-9.07-25.52-1.61-7.95-2.43-20.66-2.43-37.74l.56-61.83c0-2.93-.04-5.74-.11-8.45h-62.96c0,.06,0,.1,0,.16v1.49c-9.66,3.49-25.41,7.3-46.92,11.34-11.72,2.25-21.83,4.77-30.23,7.55v122.36c7.55,2.07,15.84,3.13,24.87,3.13,12.37,0,24.19-2.37,35.14-7.04Zm-43.16-63.11c0-5.76,2.55-10.25,7.89-14.04,2.69-1.79,9.54-4.71,26.9-8.42,10.4-2.22,18.94-4.25,25.51-6.07v3.1c0,15.04-1,21.45-1.85,24.26-1.68,5.77-5.15,10.55-10.55,14.58-7.76,5.63-15.64,8.36-24.06,8.36-7.1,0-12.73-2.13-17.22-6.52-4.45-4.35-6.62-9.34-6.62-15.25Z"/><path class="cls-2" d="m1121.15,161.13c-2.7,10.99-4.06,23.04-4.06,36.14,0,33.96,9.28,61.03,27.6,80.46,18.4,19.53,43.3,29.43,74.01,29.43,26.9,0,48.79-6.55,65.04-19.47,16.26-12.93,27.37-32.16,33.04-57.17l1.29-5.7-63.11-10.75-1.01,5.35c-2.39,12.65-6.37,21.52-11.81,26.37-5.4,4.82-12.26,7.16-20.98,7.16-11.79,0-20.89-4.14-27.82-12.65-7.11-8.73-10.71-24.48-10.71-46.79,0-13.46,1.61-24.28,4.8-32.37h-66.26Z"/><path class="cls-3" d="m1774.64,161.13v65.33c0,19.22.58,31.75,1.77,38.17,1.51,9.46,4.33,17.18,8.38,22.94,4.17,5.93,10.65,10.76,19.25,14.36,8.3,3.47,17.7,5.23,27.94,5.23,16.25,0,31.05-2.81,44-8.36l3.78-1.62-5.74-52.16-6.63,2.42c-10.77,3.93-16.49,4.75-19.39,4.75-2.35,0-4.22-.52-5.72-1.6-1.39-1-2.21-2.13-2.57-3.56-.2-.79-.86-5.08-.86-27.16v-58.74h-64.2Z"/><polygon class="cls-3" points="1471.61 302.64 1541.52 302.64 1465.51 170.93 1474.68 161.13 1415.51 161.13 1415.51 224.73 1423.39 216.5 1471.61 302.64"/><rect class="cls-3" x="1557.84" y="238.63" width="64.01" height="64.01"/><rect class="cls-3" x="1663.7" y="161.13" width="66.84" height="141.51"/><polygon class="cls-4" points="1838.84 16.79 1774.64 54.13 1774.64 91.52 1750.35 91.52 1750.35 144.79 1774.64 144.79 1774.64 161.13 1838.84 161.13 1838.84 144.79 1875.01 144.79 1875.01 91.52 1838.84 91.52 1838.84 16.79"/><rect class="cls-4" x="1663.7" y="15.42" width="66.84" height="145.71"/><polygon class="cls-4" points="1459.35 91.52 1415.51 141.35 1415.51 161.13 1474.68 161.13 1539.8 91.52 1459.35 91.52"/><path class="cls-5" d="m1314.04,154.65c-6.6-22.57-17.72-39.68-33.04-50.86-15.29-11.14-35.94-16.79-61.37-16.79-31.2,0-56.38,9.87-74.84,29.32-11.37,11.99-19.27,26.99-23.64,44.81h66.26c1.52-3.86,3.39-7.1,5.63-9.69,6.81-7.89,15.75-11.73,27.35-11.73,8.64,0,15.39,2.16,20.62,6.59,4.07,3.45,7.02,8.44,8.84,14.83h62.78l3.14-.57-1.73-5.91Z"/><polygon class="cls-5" points="1415.96 140.85 1405.43 152.82 1405.43 15.42 1341.42 15.42 1341.42 161.13 1415.96 161.13 1415.96 140.85"/><path class="cls-5" d="m1053.08,95.93c-12.44-6.01-30.48-8.93-55.15-8.93-20.46,0-37.37,2.89-50.49,8.59v65.54h16.68l.42-1.21c2.86-8.13,6.48-13.78,10.76-16.8,4.3-3.02,10.64-4.55,18.85-4.55,15.58,0,22.1,2.8,24.82,5.15,3.7,3.19,5.58,9.05,5.61,17.4h62.96c-.54-19.57-3.05-33.22-7.63-41.59-5.25-9.59-14.28-17.54-26.84-23.61Z"/><path class="cls-3" d="m482.8,135.91c-.95-4.03-2.26-7.89-3.88-11.57v36.79h6.74c-.39-10.38-1.33-18.7-2.86-25.22Z"/><path class="cls-3" d="m947.44,95.59c-4.22,1.83-8.05,3.95-11.47,6.36-14.2,10.01-24.3,25.48-30.02,45.99l-1.64,5.86,40.66,7.33h2.47v-65.54Z"/><polygon class="cls-3" points="711.33 127.49 596.06 127.49 596.06 73.22 729.6 73.22 729.6 15.42 529.22 15.42 529.22 161.13 711.33 161.13 711.33 127.49"/><path class="cls-3" d="m840.33,150.47c4.18-3.31,9.22-4.92,15.39-4.92,6.54,0,13.89,2.62,21.85,7.77l5.89,3.81,20.26-57.05-3.91-2.33c-12-7.14-24.67-10.76-37.68-10.76-9.57,0-18.27,2.45-25.86,7.27-4.52,2.87-9.21,7.37-14.18,13.62v-16.36h-60.24v69.61h71.21c2.09-4.89,4.52-8.47,7.28-10.66Z"/><path class="cls-2" d="m478.92,124.34c-2-4.54-4.48-8.8-7.47-12.74-5.52-7.26-13.64-13.26-24.15-17.83-10.33-4.49-21.85-6.77-34.23-6.77-23.36,0-43.61,8.34-60.38,24.82v-20.3h-60.25v69.61h68.2c2.4-6.62,6.46-11.88,12.44-16,6.4-4.41,13.44-6.55,21.53-6.55,6.06,0,11.04,1.4,15.21,4.29,4.15,2.87,7.07,6.82,8.95,12.09.46,1.28.94,3.23,1.39,6.17h58.75v-36.79Z"/><rect class="cls-2" x="14.25" y="15.42" width="66.84" height="145.71"/><rect class="cls-2" x="178.68" y="15.42" width="66.84" height="145.71"/><path class="cls-1" d="m22.34,285.5c8.43,10.37,19.98,18.88,34.34,25.3,14.48,6.47,34.84,9.62,62.25,9.62,22.47,0,41.05-2.96,55.23-8.8,14.31-5.89,25.94-13.98,34.58-24.02,8.67-10.08,14.68-22.55,17.88-37.08,3.13-14.21,4.65-37.58,4.65-71.45v-4.87h-66.84v12.59c0,21.42-.8,36.88-2.37,45.95-1.41,8.12-5.5,14.81-12.52,20.46-6.99,5.62-17.86,8.48-32.31,8.48s-25.52-3.07-33.47-9.13c-7.96-6.07-12.86-13.9-14.97-23.88-1.31-6.64-1.97-21.8-1.97-45.08v-9.39H0v7.13c0,31.17,1.89,55.17,5.61,71.34,2.69,11.45,8.32,22.5,16.73,32.83Z"/><path class="cls-1" d="m464.68,315.71v-141.51h-58.75c.92,6.07,1.68,16.37,1.68,33.88v107.63h57.07Z"/><path class="cls-1" d="m278.2,315.71h64.01v-96.14c0-21.67,1.27-36.55,3.78-44.24.13-.38.28-.75.41-1.12h-68.2v141.51Z"/><path class="cls-1" d="m840.1,234.14c0-33.37,1.42-55.43,4.23-65.58.89-3.23,1.89-6.08,2.97-8.61h-71.21v141.51h64.01v-67.32Z"/><polygon class="cls-1" points="543.47 301.46 610.3 301.46 610.3 184.12 725.58 184.12 725.58 159.96 543.47 159.96 543.47 301.46"/><polygon class="cls-1" points="961.69 160.4 961.69 159.96 959.22 159.96 961.69 160.4"/><path class="cls-1" d="m961.69,180.49c-5.03,1.66-9.45,3.41-13.23,5.24-10.66,5.16-19.08,12.71-25.01,22.44-5.91,9.69-8.91,20.83-8.91,33.12,0,18.59,6.57,34.2,19.54,46.41,7.58,7.14,16.82,12.18,27.62,15.14v-122.36Z"/><path class="cls-1" d="m493.17,301.46h6.94v-129.86c0-4.15-.07-8.02-.2-11.65h-6.74v141.51Z"/><polygon class="cls-1" points="962.98 177.45 964.12 174.2 947.44 174.2 947.44 174.65 962.98 177.45"/><polygon class="cls-1" points="1341.42 315.71 1405.43 315.71 1405.43 248.35 1415.96 237.34 1415.96 174.2 1341.42 174.2 1341.42 315.71"/><path class="cls-1" d="m1312.63,174.2h-62.78c.49,1.71.91,3.5,1.24,5.41l.93,5.53,60.61-10.94Z"/><path class="cls-1" d="m1007.45,313.19c8.39-3.58,16.44-8.58,24.04-14.91,1.79,6.03,3.3,10.6,4.6,13.91l1.38,3.51h65l-3.88-7.97c-4.42-9.08-7.47-17.66-9.07-25.52-1.61-7.95-2.43-20.66-2.43-37.74l.56-61.83c0-2.93-.04-5.74-.11-8.45h-62.96c0,.06,0,.1,0,.16v1.49c-9.66,3.49-25.41,7.3-46.92,11.34-11.72,2.25-21.83,4.77-30.23,7.55v122.36c7.55,2.07,15.84,3.13,24.87,3.13,12.37,0,24.19-2.37,35.14-7.04Zm-43.16-63.11c0-5.76,2.55-10.25,7.89-14.04,2.69-1.79,9.54-4.71,26.9-8.42,10.4-2.22,18.94-4.25,25.51-6.07v3.1c0,15.04-1,21.45-1.85,24.26-1.68,5.77-5.15,10.55-10.55,14.58-7.76,5.63-15.64,8.36-24.06,8.36-7.1,0-12.73-2.13-17.22-6.52-4.45-4.35-6.62-9.34-6.62-15.25Z"/><path class="cls-1" d="m1121.15,174.2c-2.7,10.99-4.06,23.04-4.06,36.14,0,33.96,9.28,61.03,27.6,80.46,18.4,19.53,43.3,29.43,74.01,29.43,26.9,0,48.79-6.55,65.04-19.47,16.26-12.93,27.37-32.16,33.04-57.17l1.29-5.7-63.11-10.75-1.01,5.35c-2.39,12.65-6.37,21.52-11.81,26.37-5.4,4.82-12.26,7.16-20.98,7.16-11.79,0-20.89-4.14-27.82-12.65-7.11-8.73-10.71-24.48-10.71-46.79,0-13.46,1.61-24.28,4.8-32.37h-66.26Z"/><path class="cls-1" d="m1788.89,159.96v65.33c0,19.22.58,31.75,1.77,38.17,1.51,9.46,4.33,17.18,8.38,22.94,4.17,5.93,10.65,10.76,19.25,14.36,8.3,3.47,17.7,5.23,27.94,5.23,16.25,0,31.05-2.81,44-8.36l3.78-1.62-5.74-52.16-6.63,2.42c-10.77,3.93-16.49,4.75-19.39,4.75-2.35,0-4.22-.52-5.72-1.6-1.39-1-2.21-2.13-2.57-3.56-.2-.79-.86-5.08-.86-27.16v-58.74h-64.2Z"/><polygon class="cls-1" points="1485.85 301.46 1555.77 301.46 1479.76 169.75 1488.92 159.96 1429.76 159.96 1429.76 223.56 1437.64 215.32 1485.85 301.46"/><rect class="cls-1" x="1572.09" y="237.45" width="64.01" height="64.01"/><rect class="cls-1" x="1677.95" y="159.96" width="66.84" height="141.51"/><polygon class="cls-1" points="1824.6 15.62 1760.4 52.95 1760.4 90.34 1736.1 90.34 1736.1 143.62 1760.4 143.62 1760.4 159.96 1824.6 159.96 1824.6 143.62 1860.76 143.62 1860.76 90.34 1824.6 90.34 1824.6 15.62"/><rect class="cls-1" x="1649.45" y="14.25" width="66.84" height="145.71"/><polygon class="cls-1" points="1445.11 90.34 1401.27 140.18 1401.27 159.96 1460.43 159.96 1525.56 90.34 1445.11 90.34"/><path class="cls-1" d="m1299.8,139.23c-6.6-22.57-17.72-39.68-33.04-50.86-15.29-11.14-35.94-16.79-61.37-16.79-31.2,0-56.38,9.87-74.84,29.32-11.37,11.99-19.27,26.99-23.64,44.81h66.26c1.52-3.86,3.39-7.1,5.63-9.69,6.81-7.89,15.75-11.73,27.35-11.73,8.64,0,15.39,2.16,20.62,6.59,4.07,3.45,7.02,8.44,8.84,14.83h62.78l3.14-.57-1.73-5.91Z"/><polygon class="cls-1" points="1401.71 125.42 1391.18 137.39 1391.18 0 1327.17 0 1327.17 145.71 1401.71 145.71 1401.71 125.42"/><path class="cls-1" d="m1038.84,80.51c-12.44-6.01-30.48-8.93-55.15-8.93-20.46,0-37.37,2.89-50.49,8.59v65.54h16.68l.42-1.21c2.86-8.13,6.48-13.78,10.76-16.8,4.3-3.02,10.64-4.55,18.85-4.55,15.58,0,22.1,2.8,24.82,5.15,3.7,3.19,5.58,9.05,5.61,17.4h62.96c-.54-19.57-3.05-33.22-7.63-41.59-5.25-9.59-14.28-17.54-26.84-23.61Z"/><path class="cls-1" d="m468.55,134.74c-.95-4.03-2.26-7.89-3.88-11.57v36.79h6.74c-.39-10.38-1.33-18.7-2.86-25.22Z"/><path class="cls-1" d="m933.19,94.41c-4.22,1.83-8.05,3.95-11.47,6.36-14.2,10.01-24.3,25.48-30.02,45.99l-1.64,5.86,40.66,7.33h2.47v-65.54Z"/><polygon class="cls-1" points="697.08 126.32 581.81 126.32 581.81 72.04 715.35 72.04 715.35 14.25 514.97 14.25 514.97 159.96 697.08 159.96 697.08 126.32"/><path class="cls-1" d="m826.08,149.29c4.18-3.31,9.22-4.92,15.39-4.92,6.54,0,13.89,2.62,21.85,7.77l5.89,3.81,20.26-57.05-3.91-2.33c-12-7.14-24.67-10.76-37.68-10.76-9.57,0-18.27,2.45-25.86,7.27-4.52,2.87-9.21,7.37-14.18,13.62v-16.36h-60.24v69.61h71.21c2.09-4.89,4.52-8.47,7.28-10.66Z"/><path class="cls-1" d="m478.92,108.92c-2-4.54-4.48-8.8-7.47-12.74-5.52-7.26-13.64-13.26-24.15-17.83-10.33-4.49-21.85-6.77-34.23-6.77-23.36,0-43.61,8.34-60.38,24.82v-20.3h-60.25v69.61h68.2c2.4-6.62,6.46-11.88,12.44-16,6.4-4.41,13.44-6.55,21.53-6.55,6.06,0,11.04,1.4,15.21,4.29,4.15,2.87,7.07,6.82,8.95,12.09.46,1.28.94,3.23,1.39,6.17h58.75v-36.79Z"/><rect class="cls-1" x="14.25" width="66.84" height="145.71"/><rect class="cls-1" x="178.68" width="66.84" height="145.71"/></svg>